<svg xmlns="http://www.w3.org/2000/svg" viewBox="0 0 1024 1024" width="1024" height="1024">
  <defs>
    <linearGradient id="bg" x1="0%" y1="0%" x2="100%" y2="100%">
      <stop offset="0%" style="stop-color:#111114"/>
      <stop offset="100%" style="stop-color:#0C0C0E"/>
    </linearGradient>
    <linearGradient id="gold" x1="0%" y1="0%" x2="100%" y2="100%">
      <stop offset="0%" style="stop-color:#E8C875"/>
      <stop offset="100%" style="stop-color:#B8944F"/>
    </linearGradient>
  </defs>
  <!-- Background -->
  <rect width="1024" height="1024" rx="224" fill="url(#bg)"/>
  <!-- F letterform -->
  <path d="M320 256 h384 q24 0 24 24 v56 q0 24 -24 24 H432 v120 h224 q24 0 24 24 v56 q0 24 -24 24 H432 v172 q0 24 -24 24 h-64 q-24 0 -24 -24 V280 q0 -24 24 -24z" fill="url(#gold)"/>
  <!-- Subtle accent line (the IQ mark) -->
  <rect x="640" y="680" width="88" height="8" rx="4" fill="#CFAE80" opacity="0.6"/>
  <circle cx="752" cy="684" r="6" fill="#CFAE80" opacity="0.6"/>
</svg>
